<svg width="150" height="150" viewBox="0 0 150 150" fill="none" xmlns="http://www.w3.org/2000/svg">
<g clip-path="url(#clip0_2411_2)">
<path d="M103.153 107.078C103.153 110.916 102.594 115.596 101.646 118.863C109.03 123.5 117.438 124.103 123.674 123.655C127.915 123.35 131.279 119.956 131.615 115.718C131.864 112.584 131.804 108.906 131.011 105.065C130.55 105.393 130.088 105.711 129.626 106.01C125.263 108.83 120.349 110.178 115.49 110.178C111.184 110.178 106.956 109.11 103.153 107.078Z" fill="url(#paint0_linear_2411_2)"/>
<path d="M46.845 107.092C43.043 109.117 38.8097 110.178 34.5087 110.178C29.6481 110.178 24.7365 108.831 20.3728 106.01C19.9233 105.719 19.4738 105.41 19.0253 105.091C18.2481 108.9 18.1834 112.553 18.4198 115.67C18.742 119.923 22.1248 123.334 26.3799 123.627C32.5986 124.056 40.9541 123.449 48.2758 118.904C47.3733 115.641 46.845 110.965 46.845 107.092Z" fill="url(#paint1_linear_2411_2)"/>
<path d="M25.7773 97.8197C30.1561 100.651 35.4253 101.076 40.0031 99.4419C30.3505 96.4889 22.4864 88.6778 20.05 78.252C18.9687 73.6242 18.6015 68.2939 18.7207 62.6778C14.0394 61.752 9.37629 61.0616 5.13791 60.549C1.3465 60.0904 -1.303 64.204 0.671243 67.4732C7.22124 78.3197 16.6622 91.9268 25.7773 97.8197Z" fill="url(#paint2_linear_2411_2)"/>
<path d="M144.862 60.553C140.623 61.0662 135.959 61.7571 131.278 62.6828C131.396 68.297 131.029 73.6258 129.948 78.2515C127.512 88.6768 119.647 96.4879 109.994 99.4414C114.573 101.075 119.842 100.65 124.221 97.8192C133.346 91.9192 142.783 78.3192 149.329 67.4768C151.303 64.2076 148.653 60.0945 144.862 60.553Z" fill="url(#paint3_linear_2411_2)"/>
<path d="M43.6909 90.3101C41.9343 86.2495 40.9591 81.7818 40.9591 77.0924C40.9591 65.1333 45.5596 50.3298 51.147 36.7566C47.8707 32.3344 44.5237 28.2056 41.502 24.652C39.2899 22.0505 35.0616 23.046 34.2404 26.3606C30.6056 41.0318 26.5283 62.5667 29.6783 76.047C31.3586 83.2379 36.9379 88.549 43.6909 90.3101Z" fill="url(#paint4_linear_2411_2)"/>
<path d="M71.3587 16.9894C62.9547 33.0545 50.8416 59.299 50.8416 77.0924C50.8416 90.2773 61.6784 101.004 74.9991 101.004C88.3198 101.004 99.1567 90.2773 99.1567 77.0924C99.1567 58.6293 87.1658 32.7884 78.7754 16.9672C77.1951 13.9879 72.9224 14.001 71.3587 16.9894Z" fill="url(#paint5_linear_2411_2)"/>
<path d="M106.306 90.3116C113.061 88.551 118.639 83.2389 120.32 76.047C123.47 62.5667 119.393 41.0318 115.758 26.3606C114.937 23.0465 110.709 22.05 108.497 24.6515C105.517 28.1561 102.221 32.2197 98.9878 36.5727C104.515 50.0086 109.039 64.7692 109.039 77.0929C109.039 81.7828 108.064 86.2505 106.306 90.3116Z" fill="url(#paint6_linear_2411_2)"/>
<path d="M74.999 110.786C68.3601 110.786 62.1641 108.888 56.9217 105.622C56.798 106.467 56.7278 107.33 56.7278 108.209C56.7278 120.155 63.5359 128.411 69.2818 133.252C72.5066 135.968 77.2409 135.916 80.4369 133.167C86.2621 128.155 93.2707 119.731 93.2707 108.209C93.2707 107.33 93.2005 106.467 93.0768 105.622C87.8344 108.888 81.6379 110.786 74.999 110.786Z" fill="url(#paint7_linear_2411_2)"/>
<path d="M33.1269 83.88C32.7002 83.88 32.3935 83.7067 32.2069 83.36C32.0469 83.0133 31.9669 82.6667 31.9669 82.32C31.9669 81.84 32.1002 81.3067 32.3669 80.72C32.6602 80.1333 32.9802 79.5467 33.3269 78.96C33.7002 78.3733 33.9802 77.8533 34.1669 77.4C33.2335 78.04 32.1002 78.68 30.7669 79.32C29.4602 79.96 28.0602 80.5467 26.5669 81.08C25.1002 81.5867 23.6602 82 22.2469 82.32C20.8335 82.64 19.5535 82.8 18.4069 82.8C16.6202 82.8 15.1935 82.3733 14.1269 81.52C13.0602 80.6667 12.5269 79.2933 12.5269 77.4C12.5269 75.8533 12.8869 74.2933 13.6069 72.72C14.3269 71.12 15.3002 69.5733 16.5269 68.08C17.7802 66.56 19.1802 65.16 20.7269 63.88C22.3002 62.5733 23.9535 61.4267 25.6869 60.44C27.4202 59.4533 29.1269 58.68 30.8069 58.12C32.5135 57.56 34.1002 57.28 35.5669 57.28C36.2869 57.28 36.9269 57.48 37.4869 57.88C38.0735 58.2533 38.5269 58.7467 38.8469 59.36C39.1935 59.9733 39.3669 60.6267 39.3669 61.32C39.3669 61.9067 39.1802 62.52 38.8069 63.16C38.4335 63.8 37.9535 64.3467 37.3669 64.8C36.8069 65.2267 36.2202 65.44 35.6069 65.44C35.5002 65.44 35.3935 65.4133 35.2869 65.36C35.2069 65.3067 35.1669 65.2267 35.1669 65.12C35.1669 64.9867 35.3002 64.7733 35.5669 64.48C35.8335 64.1867 36.1402 63.84 36.4869 63.44C36.8335 63.04 37.1402 62.6 37.4069 62.12C37.6735 61.6133 37.8069 61.08 37.8069 60.52C37.8069 59.88 37.5669 59.44 37.0869 59.2C36.6335 58.96 36.1269 58.84 35.5669 58.84C34.4735 58.84 33.1802 59.1467 31.6869 59.76C30.1935 60.3467 28.6335 61.16 27.0069 62.2C25.3802 63.24 23.7935 64.4133 22.2469 65.72C20.7002 67.0267 19.2869 68.4 18.0069 69.84C16.7535 71.2533 15.7535 72.6533 15.0069 74.04C14.2602 75.4 13.8869 76.6667 13.8869 77.84C13.8869 78.72 14.1669 79.3867 14.7269 79.84C15.2869 80.2933 15.9535 80.6 16.7269 80.76C17.5269 80.92 18.2735 81 18.9669 81C19.8735 81 21.0202 80.8667 22.4069 80.6C23.8202 80.3333 25.3135 79.96 26.8869 79.48C28.4602 78.9733 29.9669 78.3867 31.4069 77.72C32.8735 77.0267 34.1135 76.2533 35.1269 75.4C36.1669 74.5467 36.8335 73.6267 37.1269 72.64C36.8869 72.56 36.5135 72.52 36.0069 72.52C35.4202 72.52 34.7002 72.5733 33.8469 72.68C33.0202 72.76 32.1802 72.8667 31.3269 73C30.4735 73.1067 29.6869 73.2267 28.9669 73.36C28.2469 73.4667 27.7002 73.5467 27.3269 73.6C26.0202 73.92 24.9002 74.2533 23.9669 74.6C23.0602 74.9467 22.3802 75.12 21.9269 75.12C21.4202 75.12 21.1669 74.8267 21.1669 74.24C21.1669 73.76 21.5002 73.36 22.1669 73.04C22.8602 72.6933 23.7669 72.4133 24.8869 72.2C26.0069 71.96 27.2335 71.7733 28.5669 71.64C29.9002 71.48 31.2202 71.3733 32.5269 71.32C33.8602 71.24 35.0602 71.1867 36.1269 71.16C37.2202 71.1333 38.0735 71.12 38.6869 71.12C39.1402 71.12 39.7269 71.1333 40.4469 71.16C41.1935 71.16 41.9402 71.2 42.6869 71.28C43.4335 71.3333 44.0602 71.4267 44.5669 71.56C45.0735 71.6933 45.3269 71.88 45.3269 72.12C45.3269 72.28 45.2069 72.3867 44.9669 72.44C44.7535 72.4933 44.4869 72.52 44.1669 72.52C43.8202 72.52 43.4735 72.5067 43.1269 72.48C42.7802 72.4267 42.5402 72.4 42.4069 72.4C41.7135 72.4 40.9669 72.68 40.1669 73.24C39.3935 73.7733 38.6202 74.48 37.8469 75.36C37.1002 76.2133 36.4069 77.1333 35.7669 78.12C35.1535 79.1067 34.6602 80.0533 34.2869 80.96C33.9135 81.8667 33.7269 82.6267 33.7269 83.24C33.7269 83.4533 33.7402 83.6133 33.7669 83.72C33.6602 83.7467 33.5535 83.7733 33.4469 83.8C33.3402 83.8533 33.2335 83.88 33.1269 83.88ZM52.0469 82.28C51.5135 82.28 50.9535 82.0533 50.3669 81.6C49.7802 81.1467 49.4869 80.6267 49.4869 80.04C49.4869 79.5067 49.6202 78.88 49.8869 78.16C50.1535 77.44 50.4602 76.7867 50.8069 76.2C49.9802 77.08 49.1402 77.96 48.2869 78.84C47.4602 79.72 46.6469 80.6133 45.8469 81.52C45.5802 81.84 45.2602 82 44.8869 82C44.3802 82 43.9002 81.7333 43.4469 81.2C43.0202 80.6667 42.8069 80.16 42.8069 79.68C42.8069 79.5467 42.8202 79.44 42.8469 79.36C43.0335 78.8533 43.2469 78.36 43.4869 77.88C43.7535 77.3733 44.0202 76.8933 44.2869 76.44C44.5802 75.9333 44.8869 75.4533 45.2069 75C45.5535 74.52 45.9002 74.04 46.2469 73.56C46.3802 73.4 46.5002 73.24 46.6069 73.08C46.7402 72.8933 46.8602 72.7067 46.9669 72.52C47.0469 72.3867 47.0869 72.2267 47.0869 72.04C47.0869 71.8533 47.0735 71.6933 47.0469 71.56C47.3135 71.2133 47.6735 70.88 48.1269 70.56C48.5802 70.2133 49.0202 70.04 49.4469 70.04C49.5535 70.04 49.7269 70.08 49.9669 70.16C50.2335 70.2133 50.4735 70.2933 50.6869 70.4C50.9269 70.48 51.0469 70.5733 51.0469 70.68C51.0469 70.7867 50.9935 70.8933 50.8869 71C50.7535 71.1333 50.6069 71.2667 50.4469 71.4C50.2869 71.5333 50.1402 71.68 50.0069 71.84C49.3935 72.4533 48.8069 73.1067 48.2469 73.8C47.6869 74.4667 47.1535 75.1467 46.6469 75.84C46.4869 76.08 46.2335 76.44 45.8869 76.92C45.5669 77.3733 45.2735 77.84 45.0069 78.32C44.7402 78.8 44.6069 79.1867 44.6069 79.48C44.6069 79.7467 44.7269 79.88 44.9669 79.88C45.2335 79.88 45.6202 79.7067 46.1269 79.36C46.6602 78.9867 47.2335 78.52 47.8469 77.96C48.4602 77.3733 49.0602 76.7733 49.6469 76.16C50.2602 75.5467 50.7935 74.9867 51.2469 74.48C51.7269 73.9733 52.0602 73.6 52.2469 73.36C52.8069 72.6933 53.3535 71.9467 53.8869 71.12C54.1002 70.8 54.3535 70.52 54.6469 70.28C54.9669 70.0133 55.3135 69.88 55.6869 69.88C55.9002 69.88 56.1669 69.9067 56.4869 69.96C56.8335 69.9867 57.0069 70.1467 57.0069 70.44C57.0069 70.5467 56.9669 70.6533 56.8869 70.76C56.8335 70.8667 56.7669 70.96 56.6869 71.04C55.8069 71.9467 54.9669 72.9067 54.1669 73.92C53.3935 74.9067 52.7402 75.9867 52.2069 77.16C52.0202 77.56 51.8335 78.0933 51.6469 78.76C51.4602 79.4 51.3669 79.9467 51.3669 80.4C51.3669 80.8533 51.5402 81.08 51.8869 81.08C52.1269 81.08 52.3669 81 52.6069 80.84C52.9002 80.68 53.3002 80.36 53.8069 79.88C54.3135 79.3733 54.8469 78.8133 55.4069 78.2C55.9935 77.56 56.5402 76.96 57.0469 76.4C57.5535 75.8133 57.9402 75.36 58.2069 75.04C58.2602 74.9867 58.3135 74.9467 58.3669 74.92C58.4202 74.8667 58.4735 74.84 58.5269 74.84C58.7135 74.84 58.8069 74.9467 58.8069 75.16C58.8069 75.2667 58.7802 75.3467 58.7269 75.4C58.6735 75.4533 58.6202 75.52 58.5669 75.6C57.7402 76.56 56.9135 77.5333 56.0869 78.52C55.2869 79.5067 54.4735 80.48 53.6469 81.44C53.4602 81.68 53.2335 81.88 52.9669 82.04C52.7002 82.2 52.3935 82.28 52.0469 82.28ZM61.5884 82.48C61.1618 82.48 60.7084 82.2667 60.2284 81.84C59.7751 81.3867 59.5484 80.9467 59.5484 80.52C59.5484 79.9867 59.7351 79.3867 60.1084 78.72C60.4818 78.0267 60.9218 77.36 61.4284 76.72C61.9351 76.08 62.3751 75.5333 62.7484 75.08C63.1218 74.6 63.3084 74.28 63.3084 74.12V74.04C63.0684 73.8267 62.8418 73.6267 62.6284 73.44C62.4151 73.2267 62.1218 73.12 61.7484 73.12C61.4818 73.12 61.1351 73.28 60.7084 73.6C60.3084 73.92 59.8951 74.2933 59.4684 74.72C59.0418 75.1467 58.6551 75.5467 58.3084 75.92C57.9618 76.2933 57.7084 76.5467 57.5484 76.68C57.4418 76.7867 57.3351 76.8533 57.2284 76.88C57.1484 76.9067 57.0818 76.92 57.0284 76.92C56.9218 76.92 56.8684 76.8667 56.8684 76.76C56.8684 76.6533 56.9218 76.5467 57.0284 76.44C57.4551 75.88 57.9484 75.3067 58.5084 74.72C59.0684 74.1333 59.5751 73.6 60.0284 73.12C60.4818 72.6133 60.7484 72.2533 60.8284 72.04C61.0418 71.4267 61.2551 70.88 61.4684 70.4C61.7084 69.92 62.0818 69.4667 62.5884 69.04C62.8018 68.8267 63.0551 68.6533 63.3484 68.52C63.6418 68.3867 63.9351 68.32 64.2284 68.32C64.4951 68.32 64.7084 68.4 64.8684 68.56C65.0551 68.6933 65.1484 68.9067 65.1484 69.2C65.1484 69.52 65.0018 69.84 64.7084 70.16C64.4418 70.48 64.1218 70.7867 63.7484 71.08C63.3751 71.3467 63.0418 71.5867 62.7484 71.8C62.4818 72.0133 62.3618 72.1867 62.3884 72.32C62.5484 72.4267 62.8551 72.56 63.3084 72.72C63.7884 72.88 64.1218 72.96 64.3084 72.96C64.5218 72.96 64.7218 72.92 64.9084 72.84C65.0951 72.76 65.2818 72.72 65.4684 72.72C65.7351 72.72 66.0018 72.8 66.2684 72.96C66.5351 73.12 66.6684 73.36 66.6684 73.68C66.6684 73.9467 66.5618 74.2 66.3484 74.44C66.1618 74.6533 65.9618 74.84 65.7484 75C65.4284 75.24 65.0018 75.6 64.4684 76.08C63.9351 76.56 63.3884 77.0933 62.8284 77.68C62.2951 78.2667 61.8284 78.8533 61.4284 79.44C61.0551 80 60.8684 80.4933 60.8684 80.92C60.8684 81.0267 60.8951 81.1333 60.9484 81.24C60.9751 81.2667 61.0284 81.28 61.1084 81.28C61.6418 81.28 62.2418 81.04 62.9084 80.56C63.5751 80.08 64.2418 79.4933 64.9084 78.8C65.6018 78.1067 66.2418 77.4267 66.8284 76.76C67.4418 76.0667 67.9618 75.5333 68.3884 75.16C68.4418 75.1067 68.5084 75.0533 68.5884 75C68.6684 74.9467 68.7484 74.92 68.8284 74.92C68.9618 74.92 69.0284 75.0133 69.0284 75.2C69.0284 75.3067 68.8418 75.5733 68.4684 76C68.1218 76.4267 67.6684 76.9333 67.1084 77.52C66.5484 78.1067 65.9618 78.7067 65.3484 79.32C64.7618 79.9333 64.2151 80.48 63.7084 80.96C63.2018 81.4133 62.8418 81.7333 62.6284 81.92C62.3351 82.16 62.1218 82.3067 61.9884 82.36C61.8551 82.44 61.7218 82.48 61.5884 82.48ZM76.3828 82.28C75.8495 82.28 75.2895 82.0533 74.7028 81.6C74.1161 81.1467 73.8228 80.6267 73.8228 80.04C73.8228 79.5067 73.9561 78.88 74.2228 78.16C74.4895 77.44 74.7961 76.7867 75.1428 76.2C74.3161 77.08 73.4761 77.96 72.6228 78.84C71.7961 79.72 70.9828 80.6133 70.1828 81.52C69.9161 81.84 69.5961 82 69.2228 82C68.7161 82 68.2361 81.7333 67.7828 81.2C67.3561 80.6667 67.1428 80.16 67.1428 79.68C67.1428 79.5467 67.1561 79.44 67.1828 79.36C67.3695 78.8533 67.5828 78.36 67.8228 77.88C68.0895 77.3733 68.3561 76.8933 68.6228 76.44C68.9161 75.9333 69.2228 75.4533 69.5428 75C69.8895 74.52 70.2361 74.04 70.5828 73.56C70.7161 73.4 70.8361 73.24 70.9428 73.08C71.0761 72.8933 71.1961 72.7067 71.3028 72.52C71.3828 72.3867 71.4228 72.2267 71.4228 72.04C71.4228 71.8533 71.4095 71.6933 71.3828 71.56C71.6495 71.2133 72.0095 70.88 72.4628 70.56C72.9161 70.2133 73.3561 70.04 73.7828 70.04C73.8895 70.04 74.0628 70.08 74.3028 70.16C74.5695 70.2133 74.8095 70.2933 75.0228 70.4C75.2628 70.48 75.3828 70.5733 75.3828 70.68C75.3828 70.7867 75.3295 70.8933 75.2228 71C75.0895 71.1333 74.9428 71.2667 74.7828 71.4C74.6228 71.5333 74.4761 71.68 74.3428 71.84C73.7295 72.4533 73.1428 73.1067 72.5828 73.8C72.0228 74.4667 71.4895 75.1467 70.9828 75.84C70.8228 76.08 70.5695 76.44 70.2228 76.92C69.9028 77.3733 69.6095 77.84 69.3428 78.32C69.0761 78.8 68.9428 79.1867 68.9428 79.48C68.9428 79.7467 69.0628 79.88 69.3028 79.88C69.5695 79.88 69.9561 79.7067 70.4628 79.36C70.9961 78.9867 71.5695 78.52 72.1828 77.96C72.7961 77.3733 73.3961 76.7733 73.9828 76.16C74.5961 75.5467 75.1295 74.9867 75.5828 74.48C76.0628 73.9733 76.3961 73.6 76.5828 73.36C77.1428 72.6933 77.6895 71.9467 78.2228 71.12C78.4361 70.8 78.6895 70.52 78.9828 70.28C79.3028 70.0133 79.6495 69.88 80.0228 69.88C80.2361 69.88 80.5028 69.9067 80.8228 69.96C81.1695 69.9867 81.3428 70.1467 81.3428 70.44C81.3428 70.5467 81.3028 70.6533 81.2228 70.76C81.1695 70.8667 81.1028 70.96 81.0228 71.04C80.1428 71.9467 79.3028 72.9067 78.5028 73.92C77.7295 74.9067 77.0761 75.9867 76.5428 77.16C76.3561 77.56 76.1695 78.0933 75.9828 78.76C75.7961 79.4 75.7028 79.9467 75.7028 80.4C75.7028 80.8533 75.8761 81.08 76.2228 81.08C76.4628 81.08 76.7028 81 76.9428 80.84C77.2361 80.68 77.6361 80.36 78.1428 79.88C78.6495 79.3733 79.1828 78.8133 79.7428 78.2C80.3295 77.56 80.8761 76.96 81.3828 76.4C81.8895 75.8133 82.2761 75.36 82.5428 75.04C82.5961 74.9867 82.6495 74.9467 82.7028 74.92C82.7561 74.8667 82.8095 74.84 82.8628 74.84C83.0495 74.84 83.1428 74.9467 83.1428 75.16C83.1428 75.2667 83.1161 75.3467 83.0628 75.4C83.0095 75.4533 82.9561 75.52 82.9028 75.6C82.0761 76.56 81.2495 77.5333 80.4228 78.52C79.6228 79.5067 78.8095 80.48 77.9828 81.44C77.7961 81.68 77.5695 81.88 77.3028 82.04C77.0361 82.2 76.7295 82.28 76.3828 82.28ZM89.6444 82.64C88.4177 82.64 87.5644 82.24 87.0844 81.44C86.6044 80.64 86.3644 79.6667 86.3644 78.52C86.3644 77.88 86.4177 77.2267 86.5244 76.56C86.631 75.8667 86.7644 75.1867 86.9244 74.52C86.6044 74.7067 86.2177 75 85.7644 75.4C85.311 75.8 84.791 76.3067 84.2044 76.92C83.751 77.8267 83.351 78.7067 83.0044 79.56C82.6577 80.3867 82.271 81.1467 81.8444 81.84C81.7644 81.9467 81.6577 82.0133 81.5244 82.04C81.391 82.0667 81.2577 82.08 81.1244 82.08C80.5644 82.08 80.2844 81.8267 80.2844 81.32C80.2844 80.7333 80.5777 80.1733 81.1644 79.64L84.0444 74.52C83.8044 74.7067 83.5777 74.9067 83.3644 75.12C83.151 75.3333 82.911 75.56 82.6444 75.8C82.5377 75.9067 82.4177 75.96 82.2844 75.96C82.1777 75.96 82.1244 75.9067 82.1244 75.8C82.1244 75.6933 82.191 75.5467 82.3244 75.36C82.9377 74.5867 83.6844 73.7333 84.5644 72.8C85.471 71.84 86.4577 70.5467 87.5244 68.92C87.871 68.3867 88.3644 67.72 89.0044 66.92C89.6444 66.12 90.3377 65.2667 91.0844 64.36C91.8577 63.4533 92.631 62.6 93.4044 61.8C94.1777 60.9733 94.8577 60.28 95.4444 59.72C95.7377 59.48 95.991 59.28 96.2044 59.12C96.4177 58.96 96.5777 58.8667 96.6844 58.84C96.9244 58.84 97.151 58.9733 97.3644 59.24C97.5777 59.5067 97.6977 59.7867 97.7244 60.08C97.7244 60.3733 97.6177 60.5733 97.4044 60.68C97.0844 60.9467 96.7777 61.1867 96.4844 61.4C96.2177 61.6133 95.9377 61.8533 95.6444 62.12C94.9244 62.76 94.1244 63.5467 93.2444 64.48C92.3644 65.4133 91.471 66.4133 90.5644 67.48C89.6844 68.5467 88.831 69.6267 88.0044 70.72C87.2044 71.7867 86.4977 72.8 85.8844 73.76C85.9377 73.8133 85.991 73.84 86.0444 73.84C86.1244 73.84 86.2177 73.8 86.3244 73.72C86.4577 73.6133 86.6177 73.48 86.8044 73.32C87.7377 72.52 88.751 71.7067 89.8444 70.88C90.9377 70.0267 91.991 69.2533 93.0044 68.56C93.2977 68.3733 93.591 68.2133 93.8844 68.08C94.2044 67.92 94.5377 67.84 94.8844 67.84C95.0977 67.84 95.2977 67.88 95.4844 67.96C95.6977 68.0133 95.8577 68.12 95.9644 68.28C96.231 68.36 96.4844 68.4933 96.7244 68.68C96.991 68.8667 97.1244 69.12 97.1244 69.44C97.1244 69.84 96.9244 70.2267 96.5244 70.6C96.1244 70.9467 95.7777 71.2267 95.4844 71.44C94.5777 72.0267 93.511 72.5333 92.2844 72.96C91.0844 73.36 89.911 73.6667 88.7644 73.88C88.5777 74.7067 88.4044 75.56 88.2444 76.44C88.111 77.2933 88.0444 78.08 88.0444 78.8C88.0444 79.5467 88.1377 80.16 88.3244 80.64C88.511 81.12 88.8577 81.36 89.3644 81.36C89.6577 81.36 90.0177 81.2267 90.4444 80.96C90.8977 80.6667 91.351 80.3333 91.8044 79.96C92.2844 79.56 92.711 79.1733 93.0844 78.8C93.4844 78.4267 93.791 78.1467 94.0044 77.96C94.2444 77.7467 94.591 77.4267 95.0444 77C95.4977 76.5733 95.9377 76.1467 96.3644 75.72C96.8177 75.2933 97.1244 74.9867 97.2844 74.8C97.311 74.7733 97.351 74.76 97.4044 74.76C97.5377 74.76 97.6044 74.8533 97.6044 75.04C97.6044 75.2533 97.4444 75.5333 97.1244 75.88L96.4444 76.64C95.351 77.8667 94.271 79.04 93.2044 80.16C92.1644 81.2533 91.2444 82.0133 90.4444 82.44C90.1777 82.5733 89.911 82.64 89.6444 82.64ZM89.0444 72.84C89.3377 72.7867 89.791 72.6667 90.4044 72.48C91.0177 72.2933 91.6444 72.0533 92.2844 71.76C92.951 71.4667 93.5244 71.16 94.0044 70.84C94.511 70.4933 94.8044 70.1467 94.8844 69.8C94.8044 69.6133 94.6577 69.52 94.4444 69.52C94.2577 69.52 93.911 69.6667 93.4044 69.96C92.8977 70.2267 92.351 70.56 91.7644 70.96C91.1777 71.3333 90.631 71.7067 90.1244 72.08C89.6177 72.4267 89.2577 72.68 89.0444 72.84ZM104.938 82.28C104.404 82.28 103.844 82.0533 103.258 81.6C102.671 81.1467 102.378 80.6267 102.378 80.04C102.378 79.5067 102.511 78.88 102.778 78.16C103.044 77.44 103.351 76.7867 103.698 76.2C102.871 77.08 102.031 77.96 101.178 78.84C100.351 79.72 99.5375 80.6133 98.7375 81.52C98.4708 81.84 98.1508 82 97.7775 82C97.2708 82 96.7908 81.7333 96.3375 81.2C95.9108 80.6667 95.6975 80.16 95.6975 79.68C95.6975 79.5467 95.7108 79.44 95.7375 79.36C95.9242 78.8533 96.1375 78.36 96.3775 77.88C96.6442 77.3733 96.9108 76.8933 97.1775 76.44C97.4708 75.9333 97.7775 75.4533 98.0975 75C98.4442 74.52 98.7908 74.04 99.1375 73.56C99.2708 73.4 99.3908 73.24 99.4975 73.08C99.6308 72.8933 99.7508 72.7067 99.8575 72.52C99.9375 72.3867 99.9775 72.2267 99.9775 72.04C99.9775 71.8533 99.9642 71.6933 99.9375 71.56C100.204 71.2133 100.564 70.88 101.018 70.56C101.471 70.2133 101.911 70.04 102.338 70.04C102.444 70.04 102.618 70.08 102.858 70.16C103.124 70.2133 103.364 70.2933 103.578 70.4C103.818 70.48 103.938 70.5733 103.938 70.68C103.938 70.7867 103.884 70.8933 103.778 71C103.644 71.1333 103.498 71.2667 103.338 71.4C103.178 71.5333 103.031 71.68 102.898 71.84C102.284 72.4533 101.698 73.1067 101.138 73.8C100.578 74.4667 100.044 75.1467 99.5375 75.84C99.3775 76.08 99.1242 76.44 98.7775 76.92C98.4575 77.3733 98.1642 77.84 97.8975 78.32C97.6308 78.8 97.4975 79.1867 97.4975 79.48C97.4975 79.7467 97.6175 79.88 97.8575 79.88C98.1242 79.88 98.5108 79.7067 99.0175 79.36C99.5508 78.9867 100.124 78.52 100.738 77.96C101.351 77.3733 101.951 76.7733 102.538 76.16C103.151 75.5467 103.684 74.9867 104.138 74.48C104.618 73.9733 104.951 73.6 105.138 73.36C105.698 72.6933 106.244 71.9467 106.778 71.12C106.991 70.8 107.244 70.52 107.538 70.28C107.858 70.0133 108.204 69.88 108.578 69.88C108.791 69.88 109.058 69.9067 109.378 69.96C109.724 69.9867 109.898 70.1467 109.898 70.44C109.898 70.5467 109.858 70.6533 109.778 70.76C109.724 70.8667 109.658 70.96 109.578 71.04C108.698 71.9467 107.858 72.9067 107.058 73.92C106.284 74.9067 105.631 75.9867 105.098 77.16C104.911 77.56 104.724 78.0933 104.538 78.76C104.351 79.4 104.258 79.9467 104.258 80.4C104.258 80.8533 104.431 81.08 104.778 81.08C105.018 81.08 105.258 81 105.498 80.84C105.791 80.68 106.191 80.36 106.698 79.88C107.204 79.3733 107.738 78.8133 108.298 78.2C108.884 77.56 109.431 76.96 109.938 76.4C110.444 75.8133 110.831 75.36 111.098 75.04C111.151 74.9867 111.204 74.9467 111.258 74.92C111.311 74.8667 111.364 74.84 111.418 74.84C111.604 74.84 111.698 74.9467 111.698 75.16C111.698 75.2667 111.671 75.3467 111.618 75.4C111.564 75.4533 111.511 75.52 111.458 75.6C110.631 76.56 109.804 77.5333 108.978 78.52C108.178 79.5067 107.364 80.48 106.538 81.44C106.351 81.68 106.124 81.88 105.858 82.04C105.591 82.2 105.284 82.28 104.938 82.28ZM112.799 82.4C112.346 82.4 111.799 82.2267 111.159 81.88C110.519 81.5333 110.079 81.16 109.839 80.76C109.679 80.4933 109.599 80.1733 109.599 79.8C109.599 78.9467 109.906 77.8133 110.519 76.4C111.159 74.96 111.959 73.4133 112.919 71.76C113.346 71.0133 113.892 70.1467 114.559 69.16C115.252 68.1733 116.026 67.16 116.879 66.12C117.732 65.0533 118.626 64.04 119.559 63.08C120.519 62.12 121.466 61.28 122.399 60.56C123.359 59.84 124.266 59.3333 125.119 59.04C125.466 58.9067 125.772 58.84 126.039 58.84C126.546 58.84 126.892 59.0133 127.079 59.36C127.292 59.68 127.572 59.9467 127.919 60.16C128.132 60.2933 128.239 60.5067 128.239 60.8C128.239 61.4133 127.906 62.1467 127.239 63C126.572 63.8533 125.706 64.76 124.639 65.72C123.572 66.68 122.426 67.64 121.199 68.6C119.972 69.5333 118.786 70.4 117.639 71.2C116.519 72 115.559 72.6667 114.759 73.2C113.959 73.7333 113.452 74.0667 113.239 74.2C112.839 74.9467 112.466 75.8 112.119 76.76C111.772 77.72 111.599 78.6267 111.599 79.48C111.599 79.8 111.639 80.16 111.719 80.56C111.826 80.9333 112.092 81.12 112.519 81.12C112.919 81.12 113.386 80.9733 113.919 80.68C114.452 80.3867 114.972 80.0667 115.479 79.72C115.986 79.3467 116.386 79.04 116.679 78.8C117.372 78.24 117.986 77.6667 118.519 77.08C119.052 76.4933 119.679 75.8267 120.399 75.08C120.452 75.0267 120.506 74.9867 120.559 74.96C120.612 74.9067 120.679 74.88 120.759 74.88C120.919 74.88 120.999 74.9733 120.999 75.16C120.999 75.32 120.932 75.4667 120.799 75.6C119.732 76.7733 118.612 77.9867 117.439 79.24C116.292 80.4933 115.012 81.48 113.599 82.2C113.332 82.3333 113.066 82.4 112.799 82.4ZM114.519 72.12C114.919 71.9867 115.479 71.6667 116.199 71.16C116.919 70.6267 117.719 70 118.599 69.28C119.506 68.56 120.412 67.8 121.319 67C122.252 66.1733 123.106 65.3867 123.879 64.64C124.679 63.8667 125.332 63.2133 125.839 62.68C126.372 62.12 126.679 61.7333 126.759 61.52C126.812 61.36 126.839 61.2533 126.839 61.2C126.839 60.9867 126.732 60.84 126.519 60.76C126.332 60.68 126.119 60.64 125.879 60.64C125.746 60.64 125.612 60.6533 125.479 60.68C125.346 60.7067 125.226 60.7333 125.119 60.76C124.666 60.92 124.066 61.32 123.319 61.96C122.572 62.5733 121.772 63.3333 120.919 64.24C120.066 65.12 119.212 66.0533 118.359 67.04C117.532 68.0267 116.772 68.9733 116.079 69.88C115.412 70.76 114.892 71.5067 114.519 72.12ZM126.575 82.36C126.335 82.36 126.055 82.2533 125.735 82.04C125.442 81.8267 125.188 81.5867 124.975 81.32C124.762 81.0267 124.655 80.76 124.655 80.52C124.655 80.12 124.802 79.5867 125.095 78.92C125.388 78.2267 125.722 77.5467 126.095 76.88C126.495 76.2133 126.802 75.72 127.015 75.4C126.642 75.72 126.162 76.24 125.575 76.96C125.015 77.6533 124.402 78.4 123.735 79.2C123.095 79.9733 122.468 80.64 121.855 81.2C121.268 81.76 120.762 82.04 120.335 82.04C119.748 82.04 119.268 81.84 118.895 81.44C118.548 81.0133 118.375 80.5067 118.375 79.92C118.375 79.12 118.602 78.2667 119.055 77.36C119.508 76.4267 120.095 75.5333 120.815 74.68C121.562 73.8 122.362 73 123.215 72.28C124.095 71.56 124.948 70.9867 125.775 70.56C126.628 70.1333 127.388 69.92 128.055 69.92C128.775 69.92 129.362 70.0933 129.815 70.44C130.268 70.76 130.495 71.2533 130.495 71.92C130.495 72.0267 130.468 72.2267 130.415 72.52C130.388 72.8133 130.295 72.96 130.135 72.96C130.055 72.96 129.922 72.84 129.735 72.6C129.575 72.36 129.348 72.12 129.055 71.88C128.762 71.64 128.388 71.52 127.935 71.52C127.188 71.52 126.402 71.8 125.575 72.36C124.775 72.8933 124.002 73.5867 123.255 74.44C122.508 75.2667 121.855 76.12 121.295 77C120.735 77.88 120.308 78.64 120.015 79.28C119.935 79.4667 119.855 79.6667 119.775 79.88C119.722 80.0933 119.695 80.3067 119.695 80.52C119.695 80.76 119.762 80.88 119.895 80.88C120.028 80.88 120.308 80.7333 120.735 80.44C121.188 80.1467 121.508 79.9333 121.695 79.8C122.628 79.1333 123.508 78.3733 124.335 77.52C125.188 76.6667 125.948 75.7867 126.615 74.88C126.828 74.5867 127.028 74.2933 127.215 74C127.402 73.7067 127.588 73.4267 127.775 73.16C127.908 72.9733 128.042 72.88 128.175 72.88C128.468 72.88 128.748 73.08 129.015 73.48C129.308 73.88 129.455 74.2267 129.455 74.52C129.455 74.6533 129.428 74.7333 129.375 74.76C129.348 74.7867 129.268 74.8667 129.135 75C128.735 75.4 128.335 75.96 127.935 76.68C127.562 77.4 127.228 78.1333 126.935 78.88C126.668 79.6 126.468 80.2133 126.335 80.72C126.308 80.8 126.282 80.9067 126.255 81.04C126.255 81.1467 126.322 81.1867 126.455 81.16C126.722 81.08 127.148 80.7867 127.735 80.28C128.348 79.7467 129.002 79.1467 129.695 78.48C130.415 77.7867 131.055 77.1467 131.615 76.56C132.202 75.9733 132.588 75.56 132.775 75.32C132.828 75.2667 132.882 75.2133 132.935 75.16C133.015 75.08 133.095 75.04 133.175 75.04C133.362 75.04 133.455 75.1333 133.455 75.32C133.455 75.4267 133.242 75.7467 132.815 76.28C132.388 76.7867 131.855 77.3867 131.215 78.08C130.575 78.7467 129.922 79.4133 129.255 80.08C128.588 80.72 128.002 81.2667 127.495 81.72C127.015 82.1467 126.708 82.36 126.575 82.36Z" fill="black"/>
</g>
<defs>
<linearGradient id="paint0_linear_2411_2" x1="101.646" y1="105.065" x2="101.646" y2="1976.33" gradientUnits="userSpaceOnUse">
<stop stop-color="#FFA500"/>
<stop offset="1" stop-color="#FFFF00"/>
</linearGradient>
<linearGradient id="paint1_linear_2411_2" x1="18.2988" y1="105.091" x2="18.2988" y2="1970.12" gradientUnits="userSpaceOnUse">
<stop stop-color="#FFA500"/>
<stop offset="1" stop-color="#FFFF00"/>
</linearGradient>
<linearGradient id="paint2_linear_2411_2" x1="0.000244141" y1="60.5138" x2="0.000244141" y2="4048.5" gradientUnits="userSpaceOnUse">
<stop stop-color="#FFA500"/>
<stop offset="1" stop-color="#FFFF00"/>
</linearGradient>
<linearGradient id="paint3_linear_2411_2" x1="109.994" y1="60.5178" x2="109.994" y2="4048.05" gradientUnits="userSpaceOnUse">
<stop stop-color="#FFA500"/>
<stop offset="1" stop-color="#FFFF00"/>
</linearGradient>
<linearGradient id="paint4_linear_2411_2" x1="28.551" y1="23.1737" x2="28.551" y2="6736.81" gradientUnits="userSpaceOnUse">
<stop stop-color="#FFA500"/>
<stop offset="1" stop-color="#FFFF00"/>
</linearGradient>
<linearGradient id="paint5_linear_2411_2" x1="50.8416" y1="14.7404" x2="50.8416" y2="8641.11" gradientUnits="userSpaceOnUse">
<stop stop-color="#FFA500"/>
<stop offset="1" stop-color="#FFFF00"/>
</linearGradient>
<linearGradient id="paint6_linear_2411_2" x1="98.9878" y1="23.1735" x2="98.9878" y2="6736.98" gradientUnits="userSpaceOnUse">
<stop stop-color="#FFA500"/>
<stop offset="1" stop-color="#FFFF00"/>
</linearGradient>
<linearGradient id="paint7_linear_2411_2" x1="56.7278" y1="105.622" x2="56.7278" y2="3069.37" gradientUnits="userSpaceOnUse">
<stop stop-color="#FFA500"/>
<stop offset="1" stop-color="#FFFF00"/>
</linearGradient>
<clipPath id="clip0_2411_2">
<rect width="150" height="150" fill="white"/>
</clipPath>
</defs>
</svg>
